<?xml version="1.0" encoding="utf-8"?>
<!-- Generator: Adobe Illustrator 24.0.0, SVG Export Plug-In . SVG Version: 6.00 Build 0)  -->
<svg version="1.1" id="Layer_1" xmlns="http://www.w3.org/2000/svg" xmlns:xlink="http://www.w3.org/1999/xlink" x="0px" y="0px"
	 viewBox="0 0 140.96 50" style="enable-background:new 0 0 140.96 50;" xml:space="preserve">
<style type="text/css">
	.st0{fill:none;}
	.st1{fill:#ED1B2F;}
</style>
<g>
	<rect class="st0" width="140.96" height="50"/>
	<g>
		<g>
			<path class="st1" d="M103.34,26.02v-1.75l1.76-0.2c0.61-0.07,0.87-0.63,0.95-0.76l4.4-7.16c0.36-0.56,0.01-1.06-0.45-1.11
				l-2.32-0.27v-1.77h10.02c0.56,0,0.92,0.39,1.15,0.72l5.85,8.95c0.46,0.72,0.81,1.28,1.4,1.36l1.84,0.2v1.79h-11.26v-1.76
				l1.43-0.18c0.69-0.08,1.25-0.39,0.69-1.23l-0.54-0.82h-7.99l-0.61,0.99c-0.38,0.61,0,0.97,0.59,1.05l1.43,0.18v1.76H103.34
				 M111.7,19.74h5.06l-2.55-4.01L111.7,19.74"/>
			<path class="st1" d="M95.88,13.01H82.99v1.77l1.62,0.16c0.6,0.09,0.84,0.53,0.84,1.12c0,0.59,0,6.49,0,7.01
				c0,0.48-0.2,0.94-0.74,1.02l-1.73,0.22v1.71l12.89,0.01c5.94,0,8.49-2.88,8.49-6.69C104.36,15.91,101.81,13.01,95.88,13.01
				 M93.89,23.52h-3.32V15.5h3.32c3.17,0,4.5,0.74,4.5,4.01C98.39,22.8,97.05,23.52,93.89,23.52"/>
			<path class="st1" d="M13.01,26.02h10.43v-1.74l-1.79-0.2c-0.41-0.05-0.82-0.31-0.82-1.18v-2.1h8.03v1.99
				c0,0.59-0.1,1.15-0.8,1.23l-1.81,0.2v1.79h10.43v-1.79l-1.84-0.2c-0.36-0.05-0.77-0.34-0.77-1.07v-6.77
				c0-0.69,0.25-1.16,0.79-1.2l1.82-0.2v-1.77H26.25v1.75l1.81,0.23c0.61,0.08,0.8,0.56,0.8,1.2v2.02h-8.03v-2.05
				c0-0.77,0.31-1.13,0.84-1.17l1.76-0.2v-1.77h-10.4v1.77l1.74,0.2c0.69,0.08,0.87,0.59,0.84,1.25v6.6c0,0.74-0.2,1.18-0.87,1.25
				l-1.74,0.2V26.02"/>
			<path class="st1" d="M37.19,19.45c0-4.09,3.3-6.95,10.66-6.95c7.31,0,10.61,2.87,10.61,6.95c0,4.19-3.3,7.03-10.61,7.03
				C40.49,26.48,37.19,23.64,37.19,19.45 M47.82,15.01c-2.96,0-4.65,1.1-4.65,4.47c0,3.43,1.69,4.53,4.65,4.53
				c2.96,0,4.65-1.1,4.65-4.53C52.48,16.11,50.79,15.01,47.82,15.01"/>
			<path class="st1" d="M59.04,26.02h8.33v-1.74l-1.79-0.2c-0.51-0.05-0.82-0.48-0.82-1.08v-6.62l6.93,9.13
				c0.23,0.3,0.66,0.51,1.08,0.51h6.54v-9.86c0-0.47,0.12-1.1,0.79-1.17l1.82-0.2v-1.77h-8.33v1.75l1.82,0.23
				c0.64,0.08,0.79,0.61,0.79,1.22v6.44l-6.88-9.07c-0.25-0.33-0.59-0.57-1.07-0.57h-9.2v1.77l1.74,0.2
				c0.61,0.09,0.84,0.4,0.84,1.25v6.6c0,0.78-0.21,1.15-0.87,1.25l-1.71,0.2V26.02"/>
		</g>
		<g>
			<polygon points="17.23,31.57 19.87,31.57 19.87,36.98 20.83,36.98 20.83,31.57 23.44,31.57 23.44,30.85 17.23,30.85 			"/>
			<path d="M27.28,32.18c-0.84,0-1.53,0.34-1.95,0.95v-2.28h-0.92v6.14h0.92V34.8c0-1.46,0.94-1.99,1.81-1.99
				c0.92,0,1.41,0.54,1.41,1.55v2.62h0.92v-2.66C29.48,32.95,28.7,32.18,27.28,32.18z"/>
			<path d="M49.8,32.66C49.31,32.22,48.59,32,47.65,32c-0.89,0-1.63,0.24-2.13,0.7c-0.48,0.44-0.74,1.08-0.74,1.84
				c0,0.81,0.25,1.44,0.74,1.88c0.49,0.44,1.21,0.67,2.13,0.67c1.86,0,2.88-0.91,2.88-2.55C50.53,33.73,50.28,33.1,49.8,32.66z
				 M49.55,34.54c0,0.54-0.17,1.01-0.49,1.34c-0.34,0.35-0.83,0.54-1.42,0.54c-0.59,0-1.08-0.19-1.41-0.54
				c-0.31-0.33-0.48-0.8-0.48-1.34c0-1.18,0.71-1.88,1.89-1.88C48.86,32.66,49.55,33.35,49.55,34.54z"/>
			<path d="M77.29,32.66C76.8,32.22,76.08,32,75.14,32c-0.9,0-1.63,0.24-2.13,0.7c-0.49,0.44-0.74,1.08-0.74,1.84
				c0,1.64,1.02,2.55,2.88,2.55c0.92,0,1.64-0.22,2.13-0.67c0.49-0.44,0.74-1.07,0.74-1.88C78.01,33.73,77.77,33.1,77.29,32.66z
				 M73.72,33.18c0.33-0.34,0.82-0.52,1.42-0.52c1.21,0,1.91,0.69,1.91,1.88c0,0.54-0.17,1-0.49,1.34
				c-0.34,0.36-0.83,0.54-1.42,0.54c-1.16,0-1.9-0.74-1.9-1.88C73.23,33.98,73.4,33.51,73.72,33.18z"/>
			<path d="M95.9,32.06c-0.92,0.07-1.42,0.66-1.73,1.22V32.1h-0.83v4.89h0.94v-2.57c0.02-0.47,0.2-0.86,0.53-1.15
				c0.33-0.29,0.75-0.44,1.25-0.44l0.45-0.01v-0.76l-0.01,0C96.36,32.04,96,32.05,95.9,32.06z"/>
			<path d="M41.57,30.85c-0.01,0-2.79,0.01-2.79,0.01v6.13h0.95v-2.36h1.97c0.83,0,1.47-0.19,1.91-0.55
				c0.4-0.34,0.61-0.82,0.61-1.41c0-0.49-0.15-0.88-0.45-1.18C43.35,31.06,42.6,30.85,41.57,30.85z M43.21,32.68
				c0,0.87-0.49,1.25-1.59,1.25h-1.88v-2.39h1.82C42.68,31.55,43.21,31.91,43.21,32.68z"/>
			<path d="M91.16,31.65c-0.6-0.53-1.52-0.8-2.73-0.8h-2.73v6.14h2.77c1.13,0,2.02-0.27,2.64-0.79c0.62-0.54,0.93-1.3,0.93-2.28
				C92.03,32.92,91.74,32.15,91.16,31.65z M86.66,31.56h1.54c1.11,0,1.83,0.19,2.27,0.6c0.39,0.36,0.56,0.91,0.56,1.77
				c0,1.59-0.88,2.37-2.69,2.37h-1.68V31.56z"/>
			<path d="M108.07,35.95v-2.03c0-0.51-0.01-0.93-0.51-1.35c-0.42-0.36-1.14-0.57-1.87-0.57c-0.74,0-2,0.21-2.24,1.23h1.01
				c0.15-0.33,0.62-0.57,1.23-0.57c0.87,0,1.47,0.39,1.47,1.14v0.16h-0.5c-0.09,0-0.18,0-0.28,0c-0.85,0-2.15,0.03-2.77,0.67
				c-0.23,0.24-0.35,0.54-0.35,0.9c0,0.91,0.79,1.56,1.95,1.56c0.91,0,1.48-0.15,1.98-0.82c0,0,0.01,0.42,0.05,0.73
				c0.1,0,0.89,0,0.89,0S108.07,36.45,108.07,35.95z M107.16,34.82c0,1.08-0.56,1.62-1.71,1.62c-0.78,0-1.21-0.33-1.21-0.91
				c0-0.2,0.07-0.37,0.2-0.5c0.38-0.38,1.2-0.43,1.81-0.43c0.1,0,0.19,0,0.27,0c0.07,0,0.13,0,0.18,0h0.45V34.82z"/>
			<path d="M115.42,32c-1.02,0-1.53,0.65-1.78,1.18c-0.28-0.71-0.9-1.18-1.65-1.18c-0.77,0-1.36,0.37-1.71,1.02
				c0,0,0-0.45-0.04-0.93c-0.24,0-0.24,0-0.87,0c0.03,0.37,0.03,0.81,0.03,1.19v3.7h0.92v-2.35c0-1.34,0.74-1.95,1.47-1.95
				c0.76,0,1.12,0.58,1.12,1.81v2.49h0.92v-2.35c0-0.71,0.19-1.24,0.56-1.59c0.36-0.33,0.77-0.36,0.88-0.36
				c0.44,0,0.73,0.15,0.91,0.46c0.17,0.29,0.24,0.73,0.24,1.39v2.45h0.92v-2.81c0-0.73-0.19-1.29-0.55-1.66
				C116.48,32.2,116.01,32,115.42,32z"/>
			<path d="M122.12,34.33l-1.53-0.32c-0.73-0.15-1.05-0.34-1.05-0.67c0-0.45,0.58-0.68,1.41-0.68c0.69,0,1.18,0.18,1.34,0.57h1
				c-0.07-0.43-0.31-0.74-0.73-0.95c-0.48-0.24-1.16-0.29-1.58-0.29c-0.65,0-1.2,0.12-1.6,0.35c-0.46,0.26-0.76,0.65-0.76,1.14
				c0,0.65,0.48,1.04,1.34,1.22l1.45,0.31c0.5,0.1,1.02,0.25,1.02,0.67c0,0.51-0.53,0.75-1.5,0.75c-0.8,0-1.28-0.23-1.44-0.71h-1.01
				c0.19,1.12,1.36,1.36,2.34,1.36c1.74,0,2.59-0.5,2.59-1.53C123.4,34.87,123.03,34.52,122.12,34.33z"/>
			<path d="M81.32,30.76c-0.5,0-0.94,0.05-1.31,0.35c-0.16,0.13-0.31,0.33-0.4,0.61c-0.09,0.26-0.11,0.53-0.12,1h-1v0.66h1l0,3.6
				h0.94v-3.6h1.69v-0.66c0,0-1.51,0-1.69,0c0-0.68,0.03-0.9,0.23-1.09c0.13-0.13,0.33-0.21,0.78-0.21c0.27,0,0.56,0.03,0.73,0.08
				c0-0.1,0-0.6,0-0.67C81.94,30.78,81.66,30.76,81.32,30.76z"/>
			<path d="M57.95,34.27c-0.18,0.59-0.38,1.25-0.62,2.08h0c-0.2-0.66-0.41-1.34-0.62-2.03l-0.65-1.99l0-0.01h-1.42l-0.65,1.99
				c-0.22,0.66-0.43,1.35-0.62,2.03h0c-0.24-0.83-0.44-1.49-0.62-2.08l-0.6-1.94l0-0.01h-1.02l1.51,4.66l0,0.01h1.43l0.67-2.02
				c0.05-0.17,0.11-0.34,0.16-0.51c0.15-0.49,0.31-0.99,0.46-1.49h0.01c0.16,0.52,0.32,1.05,0.48,1.56c0.05,0.15,0.09,0.3,0.14,0.45
				l0.67,2.01l0,0.01h1.42l1.51-4.66l0-0.02h-1.02L57.95,34.27z"/>
			<path d="M69.08,32.06c-0.92,0.07-1.42,0.66-1.73,1.22V32.1h-0.83v4.89h0.94v-2.57c0.02-0.47,0.2-0.86,0.53-1.15
				c0.33-0.29,0.75-0.44,1.25-0.44l0.45-0.01v-0.76l-0.01,0C69.54,32.04,69.18,32.05,69.08,32.06z"/>
			<path d="M64.63,32.67C64.2,32.24,63.57,32,62.77,32c-1.68,0-2.64,0.98-2.64,2.64c0,0.73,0.24,1.35,0.69,1.77
				c0.46,0.43,1.14,0.69,1.95,0.69c0.61,0,1.17-0.15,1.58-0.39c0.39-0.22,0.72-0.54,0.85-0.96h-1.02c-0.25,0.46-0.8,0.7-1.46,0.7
				c-0.68,0-1.19-0.31-1.46-0.86c-0.11-0.22-0.19-0.5-0.21-0.78h4.25v-0.28C65.28,33.72,65.06,33.1,64.63,32.67z M61.05,34.15
				c0.01-0.09,0.03-0.19,0.05-0.27c0.2-0.79,0.77-1.22,1.64-1.22c1.12,0,1.54,0.78,1.56,1.49H61.05z"/>
			<path d="M101.51,32.67c-0.43-0.43-1.06-0.68-1.86-0.68C97.96,32,97,32.98,97,34.63c0,0.73,0.24,1.35,0.69,1.77
				c0.46,0.43,1.14,0.69,1.95,0.69c0.61,0,1.17-0.15,1.58-0.39c0.39-0.22,0.72-0.54,0.85-0.96h-1.02c-0.25,0.46-0.8,0.7-1.46,0.7
				c-0.68,0-1.19-0.31-1.46-0.86c-0.11-0.22-0.19-0.5-0.21-0.78c0,0,4.12,0,4.25,0c0.01-0.17,0-0.34-0.02-0.61
				C102.09,33.73,101.96,33.13,101.51,32.67z M97.93,34.15c0.01-0.09,0.03-0.19,0.05-0.27c0.2-0.79,0.77-1.22,1.64-1.22
				c1.12,0,1.54,0.78,1.56,1.49H97.93z"/>
			<path d="M35.1,32.67C34.67,32.24,34.05,32,33.24,32c-1.68,0-2.64,0.98-2.64,2.64c0,0.73,0.24,1.35,0.69,1.77
				c0.46,0.43,1.14,0.69,1.95,0.69c0.61,0,1.17-0.15,1.58-0.39c0.39-0.22,0.72-0.54,0.85-0.96h-1.02c-0.25,0.46-0.8,0.7-1.46,0.7
				c-0.68,0-1.19-0.31-1.46-0.86c-0.11-0.22-0.19-0.5-0.21-0.78h4.25v-0.28C35.75,33.72,35.53,33.1,35.1,32.67z M31.53,34.15
				c0.01-0.09,0.03-0.19,0.05-0.27c0.2-0.79,0.77-1.22,1.64-1.22c1.12,0,1.54,0.78,1.56,1.49H31.53z"/>
		</g>
	</g>
</g>
</svg>
