<svg width="76" height="76" viewBox="0 0 76 76" fill="none" xmlns="http://www.w3.org/2000/svg">
<g filter="url(#filter0_bd_374_55489)">
<rect x="11" y="11.1348" width="54" height="54" rx="27" fill="#F02D43" fill-opacity="0.65" shape-rendering="crispEdges"/>
<g clip-path="url(#clip0_374_55489)">
<path d="M32.3668 50.1158C32.1633 50.1158 31.955 50.0354 31.7988 49.8792C31.4863 49.5668 31.4863 49.0555 31.7988 48.7431L42.4922 38.0448L31.955 27.5076C31.6426 27.1951 31.6426 26.6839 31.955 26.3714C32.2674 26.059 32.7786 26.059 33.0911 26.3714L44.1964 37.4768C44.5088 37.7892 44.5088 38.3004 44.1964 38.6128L32.9349 49.8791C32.7786 50.0353 32.5704 50.1158 32.3668 50.1158L32.3668 50.1158Z" fill="white"/>
</g>
</g>
<defs>
<filter id="filter0_bd_374_55489" x="-2.33333" y="-2.19857" width="80.6667" height="80.6667" filterUnits="userSpaceOnUse" color-interpolation-filters="sRGB">
<feFlood flood-opacity="0" result="BackgroundImageFix"/>
<feGaussianBlur in="BackgroundImageFix" stdDeviation="6.66667"/>
<feComposite in2="SourceAlpha" operator="in" result="effect1_backgroundBlur_374_55489"/>
<feColorMatrix in="SourceAlpha" type="matrix" values="0 0 0 0 0 0 0 0 0 0 0 0 0 0 0 0 0 0 127 0" result="hardAlpha"/>
<feMorphology radius="2.66667" operator="dilate" in="SourceAlpha" result="effect2_dropShadow_374_55489"/>
<feOffset/>
<feGaussianBlur stdDeviation="4"/>
<feComposite in2="hardAlpha" operator="out"/>
<feColorMatrix type="matrix" values="0 0 0 0 0.941176 0 0 0 0 0.176471 0 0 0 0 0.264157 0 0 0 1 0"/>
<feBlend mode="normal" in2="effect1_backgroundBlur_374_55489" result="effect2_dropShadow_374_55489"/>
<feBlend mode="normal" in="SourceGraphic" in2="effect2_dropShadow_374_55489" result="shape"/>
</filter>
<clipPath id="clip0_374_55489">
<rect width="24" height="24" fill="white" transform="translate(26 26.1348)"/>
</clipPath>
</defs>
</svg>
